<?xml version="1.0" encoding="UTF-8" standalone="no"?>
<!-- Created with Inkscape (http://www.inkscape.org/) -->

<svg
   xmlns:dc="http://purl.org/dc/elements/1.1/"
   xmlns:cc="http://creativecommons.org/ns#"
   xmlns:rdf="http://www.w3.org/1999/02/22-rdf-syntax-ns#"
   xmlns:svg="http://www.w3.org/2000/svg"
   xmlns="http://www.w3.org/2000/svg"
   xmlns:sodipodi="http://sodipodi.sourceforge.net/DTD/sodipodi-0.dtd"
   xmlns:inkscape="http://www.inkscape.org/namespaces/inkscape"
   width="57"
   height="70"
   viewBox="0 0 56.999998 69.999999"
   id="svg3395"
   version="1.1"
   inkscape:version="0.91 r"
   sodipodi:docname="logo_SU2.svg">
  <defs
     id="defs3397" />
  <sodipodi:namedview
     id="base"
     pagecolor="#ffffff"
     bordercolor="#666666"
     borderopacity="1.0"
     inkscape:pageopacity="0.0"
     inkscape:pageshadow="2"
     inkscape:zoom="7.9195959"
     inkscape:cx="28.416507"
     inkscape:cy="29.506945"
     inkscape:document-units="px"
     inkscape:current-layer="g2993"
     showgrid="false"
     units="px"
     inkscape:window-width="1366"
     inkscape:window-height="718"
     inkscape:window-x="0"
     inkscape:window-y="0"
     inkscape:window-maximized="1" />
  <metadata
     id="metadata3400">
    <rdf:RDF>
      <cc:Work
         rdf:about="">
        <dc:format>image/svg+xml</dc:format>
        <dc:type
           rdf:resource="http://purl.org/dc/dcmitype/StillImage" />
        <dc:title></dc:title>
      </cc:Work>
    </rdf:RDF>
  </metadata>
  <g
     inkscape:label="Layer 1"
     inkscape:groupmode="layer"
     id="layer1"
     transform="translate(0,-982.3622)">
    <g
       transform="matrix(0.06556691,0,0,-0.06577267,-1.8032611,1052.9225)"
       inkscape:label="ink_ext_XXXXXX"
       id="g2993">
      <g
         transform="scale(0.1,0.1)"
         id="g2995">
        <path
           id="path2997"
           style="fill:#ffffff;fill-opacity:1;fill-rule:nonzero;stroke:none"
           d="m 4225.4,8891.1 c 83.3,91.9 -126.2,335 92.2,324.7 72.5,-89.1 -12.1,-269.9 113.6,-325.4 146,44.8 -62.2,357.3 149.6,321.9 20.1,-104.9 -28.1,-211.5 4.3,-314.8 13.1,-45.6 86.3,-51.4 103.5,-5.5 48.3,98.2 26.1,212.8 53.9,316.4 228.9,46 31,-306.8 148.4,-388.1 125.4,58.8 84,243.6 97.5,362 36.2,-0.1 79.8,21.1 110.1,-3.3 74.3,-120.1 -88.4,-291.1 23,-393.9 115.4,70 115.4,232.2 141.1,353.1 27.4,19.2 73.1,10.1 89.4,-18.2 24.2,-129.6 -65.5,-247 -59.5,-374.7 7.5,-43.1 61.5,-39.9 88,-16.5 81.4,100.7 80.8,252.2 166.6,349.5 125.9,27.1 96.7,-136.2 51.5,-195.7 -28.6,-61.7 -121.8,-184.1 -26.9,-231.3 127.7,52.4 158.7,207 237.2,309.4 26.9,40.7 92.7,-5.4 77.3,-46.9 -34.1,-103.8 -111.5,-185.7 -158.6,-282.4 -32.5,-52 36.3,-99.6 78.3,-68.5 111.1,79.9 172.9,206.8 244.8,319.8 180.4,-116.2 -179.1,-275 -115.2,-429.6 178.3,-25.3 210.3,225.7 346,247.9 -33.6,-98.6 -142.3,-149 -176.7,-247.3 -26.9,-63.8 59.8,-76.9 94.1,-44.3 97.9,27.4 127.8,187.4 242.1,160.6 -3,-115.9 -184.7,-176.8 -148.1,-296.9 110.9,-70.2 166.5,129.9 265.4,145.2 94.1,-23.6 181,-153.7 81.3,-227.4 -29.4,-33.7 -115.5,-140.4 -28.8,-159.1 81,18.2 150.2,74.7 235.3,82.7 185,-155.2 -110,-215.9 -123.6,-349.7 104.5,-15.1 184.8,71.2 284.1,83.1 51.1,-37.6 85.1,-123.7 22.5,-167.1 -96.6,-54.2 -191,-112.6 -267.5,-194.2 -174.2,575.5 -726.2,929.4 -1263.9,1121.5 -827.8,217.6 -1766.7,163.4 -2503.4,-299.7 -13,126.8 -123.2,213.3 -152.5,328.6 61.9,72.9 111.3,-61.8 147,-98.2 20.6,-64.5 138.3,-147.5 173.6,-51.6 6.2,101.5 -144.3,171 -100.7,280.9 112.4,-31 142.6,-213.6 273,-215.5 126.5,98.9 -179.8,254 -58.3,352.4 81.4,-91.9 138.8,-254.6 282.6,-254.7 52.6,141.9 -135.6,210.8 -119.4,347.7 189.5,82.3 140.4,-250.6 318.7,-229.1 47.8,114.6 -83.7,208.2 -54.6,317.3 142,59.9 109.2,-327 261,-229.9 38.7,90 -36.4,184 -48,274.7 182,122.6 155.8,-232.1 308.7,-239.9 M 3201.3,8068.8 c 153.7,260.8 446.6,440.3 749.7,450.4 -33.6,-90.1 -144.6,-101.4 -210.6,-159.3 C 3504,8163.8 3347,7880.6 3237,7597 c -88.4,14 -16.1,181.2 -112.2,172.4 -93.7,-168.3 -88,-380 -37.1,-562 -174.7,-46.5 -24.8,-255.2 -0.6,-359.8 129.1,-206.2 80.3,-461 36.9,-686.2 15.3,-143.7 31.3,-304 -31.5,-436.9 -4.7,90.1 -26.2,176.1 -61.9,258.5 -45.5,91 82.2,147.8 51.3,238.2 -22.1,343.5 -154.1,667.7 -127.1,1015.4 36.6,286.8 56.7,597.9 246.5,832.2 m -531.6,332.4 c -54.3,41.6 20.1,140.7 71.3,81.1 57.9,-75.5 115.5,-151.9 188.7,-213.9 -92.8,-168.3 -277.5,-278 -343.2,-464.8 -164.8,-428.6 -145.6,-919.7 -7.3,-1354.2 29.5,-128.1 167.3,-245.2 83.2,-379.9 -118.9,-238.1 -19.7,-513.4 114.8,-721.8 109.7,-155.3 32.9,-369.9 144.4,-525.2 105.6,-127.8 56.3,-305.4 22.2,-451.1 -64.1,-5.1 -130.7,43.3 -140.6,107.1 32.2,72.4 144.3,137.6 102.3,226.7 -103.2,91.6 -158.4,-159.3 -260.8,-90.4 4.1,129.2 205.5,190.8 171.9,341.1 -130.2,0.3 -198.6,-133 -298.1,-197.1 -49.5,21.3 -111.5,79.5 -75.9,136.5 85.9,84.2 199.7,144.5 260.8,252.1 24.7,41.9 -44.2,76.7 -77.5,58.3 -107.8,-45.5 -189.4,-135.5 -289.7,-194 -46.7,-6.5 -76.9,61.6 -59.9,98.2 89.6,89.9 228.1,127.3 290.9,245.4 13.9,41.6 -31.2,83.8 -71.8,68.5 -98.4,-38.4 -183.5,-102.8 -272,-159.2 -50.5,-55.4 -129.7,61.6 -70.4,91.8 82.2,65.7 187.5,89.1 274.8,145.3 58.9,38.5 28.1,157.3 -53.9,127.2 -89.9,-41.5 -180.4,-83.1 -271.3,-122.7 -75.9,-33.3 -75.4,87.3 -19.8,103.6 94.6,26 190.8,45.7 285.8,69.6 62,8.7 89,116.2 23,138.3 -137.3,22.8 -256.5,-64.1 -388.7,-76.4 -54.4,0 -47.4,71.2 -57.5,106.1 125.8,84.2 296.4,39.4 432.9,103.1 79.2,10.8 86.7,145 4.2,156.6 -147.7,3.2 -281.6,-80.5 -428.5,-86.3 -71.9,10.1 -61.8,105.1 -54,159.5 162.7,7.8 351.5,-89.3 498.6,-0.3 8.7,139.7 -171.4,189.7 -279.8,143.7 -95.1,-9.4 -306.5,-34.3 -248.4,127.9 116.6,3.8 226.3,-51.1 342.7,-46 56.3,10.4 132.1,67.7 94.6,130.5 -115.5,82.5 -263.2,47.8 -393.7,64.6 -64.8,2.4 -89.8,111.5 -19.5,126.7 127.8,-6.4 250.5,-85.1 381,-56.5 36.6,18.4 61.9,75.3 23.1,106.4 -94.5,106.9 -257.4,60 -379.1,100.5 -67.7,14.1 -36.2,102.2 -18.3,146.6 134.5,-28.9 253.9,-115.3 394.8,-114.1 49,9.2 57,77.4 22,106.9 -107.5,80.7 -248.8,82.6 -363.6,149.6 -13.4,34.8 3.8,111.3 58.8,76.9 100.8,-37.7 191.5,-111.6 305.2,-104.9 83.2,145.6 -133.4,172.6 -214.1,234.9 -54.2,13.5 -88.8,79.7 -23.6,106.6 91.4,-39.1 164.9,-118.4 262.6,-144.7 41.6,-11.5 64.1,45.2 53.2,78 -53.3,110.9 -236.9,135.3 -254.4,262 106.6,85.5 243.4,-122.4 356.1,-41 8.7,144.6 -176.6,149.8 -245.2,242.5 -17.3,99.9 92.9,29.4 109.9,-13.8 35.9,-69.4 150.6,-107.6 194.9,-27.6 -8.1,119.4 -161.2,166.6 -187.4,283.3 114.6,2.2 197.6,-185 308.4,-117 44.2,136 -175.2,179.7 -189.8,296.6 107.2,21.1 164.2,-165.2 283.3,-121 63.1,87.7 -52.9,161.8 -102.6,223.6 m 2506.8,95.9 c 305.6,-43.2 627.5,-152 805.2,-418.3 -4.4,-165.9 118.3,-299.2 99.9,-465.8 -7.4,-0.4 -22.3,-1.2 -29.8,-1.6 -89.8,205.8 -192,415.6 -369,561.4 -145.2,143.1 -348.8,201.5 -506.3,324.3 M 3672.2,7978.5 c 145,332.4 534.9,507.3 884,449.3 281.1,-72.8 482.2,-397.2 377.2,-679.8 -68.3,-268.2 -341.2,-418.9 -600.9,-433.5 -160.2,21.3 -317.3,66.1 -469.8,118.3 -32.8,17.9 -78.8,7.6 -88.3,-30.6 -41.1,-150.7 46.3,-315 180.9,-386.5 160.3,-139.1 386.7,-123 581.6,-165.1 -52.8,-58.1 -137,-41 -202.8,-17.4 -171.1,49.3 -347.4,70.7 -525.1,73.5 40.2,-138.1 227.1,-155 352.1,-188.2 210.4,-75 434.1,-96.6 655.8,-72.1 -298,-76.1 -611.3,-45.5 -904.7,35.1 -129.2,67.4 -294.5,106.2 -376.5,235.1 -71,354 -19.6,736.3 136.5,1061.9 M 6782,7416.9 c 120.9,28.1 215.5,132.4 343.7,132.4 40.9,-9.9 68.1,-69.6 42.2,-105.8 -109.1,-77.2 -239.6,-132.7 -321.3,-242.4 102.5,-74.7 205.9,61.2 313.5,60.3 88,57.3 154.3,-108.2 68,-140.6 -106.7,-43 -225,-57.4 -327.1,-111.8 -59.2,-30.9 -31.3,-137.5 45,-105.1 117.6,36.8 238.5,59.5 362.7,59.7 23.7,-54.8 72.9,-168.6 -6.8,-196.4 -152.1,-50.4 -328.5,-5.1 -468.7,-96.2 3.4,-16.1 10.1,-48.4 13.5,-64.5 158.5,-32.4 318.4,10.5 477.6,2.8 53.2,-34.1 50.8,-154.5 -21.9,-164.5 -159.9,-35.4 -330.5,-4.6 -485.1,-60.3 -39.8,-20.1 -33.1,-69.1 10.1,-79 166.5,-44.6 344.1,2.5 512,-38.5 -2.6,-56.7 -11.2,-112.7 -18.9,-168.9 -173.4,-15.9 -342.2,69.2 -515.3,39.3 -45.5,-27.1 -22.1,-96.7 20.4,-115 136.7,-56.1 292,-21.8 428.5,-78.1 52.6,-27.5 11.5,-100.3 -6.4,-139.1 -178.5,10.5 -335.4,128.9 -517.1,116.2 -40.6,-8.1 -48.8,-54.9 -23.4,-83.5 136.5,-89.4 297.2,-130.1 450.8,-179.6 68.8,-17 11.6,-116.3 -44.6,-83.2 -158.2,27.5 -304,107 -467.1,111.1 -7.3,95.1 -50.9,186.6 -44.4,282.3 62,238.4 71,486.8 140.9,723.6 59.9,239.4 27.8,484.2 39.2,724.8 m -490,-777.7 c 24.4,131.8 -21.3,293.2 67.5,407.8 49,-352.6 -70.4,-721.3 18.2,-1074.6 -49,-64 -122.9,-124.9 -205.7,-146 7.6,271.1 71.1,544.1 120,812.8 m -2732.4,-45.1 c 136.4,6.6 238.8,-111.6 357,-165.4 145.3,-57.4 149.6,-289.4 40.1,-375.9 -155.8,45.5 -303.5,135.3 -472.7,128.1 -139.3,-22.9 -91.2,151.3 -101.1,234.9 -11.6,107.4 103.4,138.1 176.7,178.3 m 1368.2,-221 c 161.4,10.8 326.8,97.9 486.8,55.7 -37.4,-155.9 -235.1,-187.7 -250.5,-347.9 -159.9,-20.7 -317.2,-98 -477.1,-91.7 -54.6,149.8 46.4,400.6 240.8,383.9 m -674.9,-95.8 c 30.1,65.6 131.1,22.6 188.9,11.3 -46.4,-107.2 24.7,-397.6 -168,-345.2 -2.7,111.5 8.1,224.7 -20.9,333.9 M 2782,6057.6 c 71.6,42.9 159.4,-66 130.8,-138.4 -54.3,27.5 -174.6,55.2 -130.8,138.4 m 1598.3,-241.3 c 35.3,-17.2 73,-39.6 61.6,-88.6 54.9,-258.4 -55.2,-512.2 -26.7,-771.6 -17.7,-138.3 39.6,-276.7 12.5,-413.3 -16,-1.1 -31.8,-2.2 -47.6,-3.5 -70,294.4 12.8,603.7 -44.9,901.6 13.8,121.5 -43.6,276.8 45.1,375.4 m -1550.8,-40.1 c 181.7,-61.3 211.7,-306.2 168.3,-471.9 -95.1,136.7 -126.1,312.7 -168.3,471.9 m 1261.4,-127.3 c 45.4,39.8 54.1,127.1 124.7,131.3 14.6,-376.8 75.1,-756.5 23.4,-1133 -9.4,-56.1 -77.4,-26.9 -116.8,-27.4 -77.1,-82.6 94.9,-229 -49.4,-295.7 -190.8,71.5 -268.9,-156.5 -394.4,-251.4 -79.5,-49.7 -73.7,-151.6 -89.2,-232.1 -65.3,-448.7 27.4,-898.2 19.1,-1347.9 -52.9,-283.2 -43.9,-578.5 -115.1,-857.2 -109.9,565.1 12.8,1141.2 3.5,1710 -16.4,351.5 -60.1,701.4 -62.1,1053.7 0.1,24.1 -9.1,61.9 -41.1,50.7 -75,-114.4 -46.9,-263.1 -63.3,-390.5 -27.3,-67.2 -34.6,56.9 -33.4,78.1 -18.7,362.3 -119.2,721.5 -109.6,1081.6 71.8,-76.6 164.5,-180.7 257.1,-256.8 22.4,-127.9 37.6,-260.9 100.2,-378 40.5,-83 77.1,-216.5 189.2,-212.5 210.4,167.6 462.8,362.3 478.8,655.2 27.4,72.1 -36.5,121.2 -85.9,158.4 -135,-70.3 -252.5,-263.8 -424.6,-194.4 -124.9,98.7 159.6,165.2 130.1,270.3 -36.4,54.9 -117.1,10.6 -169,22 -172.7,22.7 -273.3,219.7 -252.3,382 12.3,1.3 24.7,2.4 37.1,3.4 46.4,-106.4 70.7,-256.4 201.3,-287.3 191.9,-24.8 333.5,132.7 441.7,267.5 m 2291.3,30.3 c 10.4,-9.8 69.9,-15.7 53.3,-46 -67.2,-190.4 -117.6,-389 -224.7,-562.8 -8.5,0.9 -25.5,2.6 -34,3.5 52.1,207.5 109.9,412.4 205.4,605.3 m -1473,-63 c 95.1,-29.6 183.6,1.4 275.4,16.1 -50.3,-90.2 -255.8,-164.5 -275.4,-16.1 m 1713.3,2 c 124.5,-93.5 277.7,-148.1 430.7,-185.4 52.3,-7.3 55.3,-79.8 11.3,-101 -144.3,10 -277.4,69.1 -414.9,106.7 -65.7,4.1 -59,-96.8 -12.9,-121.4 102.9,-74.3 244.1,-79.2 342.8,-159.2 -2.1,-60.7 -75.1,-94.2 -127.3,-67.8 -103,39.9 -189,116.9 -298.2,142.9 -11.7,-13.8 -35.2,-41.4 -47,-55.2 49.9,-145.5 264.4,-153.2 294.3,-297.8 -148.2,-41.1 -217,209.9 -359,156.8 -43.3,-140 167.2,-212.4 191.9,-334.4 -110.3,1.7 -152.8,146.5 -261.6,162.2 -37.2,21.1 -105.7,-6.1 -78.2,-58.4 20.9,-110.1 182.3,-146.6 179.5,-260.4 -135.7,-22.4 -156.6,237.4 -299.5,171.7 -31.9,-116.7 104.2,-204.2 159.2,-297.3 -28.2,-41.5 -70.7,-72 -122.6,-74.5 -42.3,76.8 -33.1,273.7 -162.7,245.5 -94.4,-108.3 84.6,-203.8 87.6,-317.5 -65.9,-29.9 -145.6,-64.7 -218,-40.3 -22.4,194.9 79.9,397.3 223.9,525 218.6,253.4 300.2,583.7 480.7,859.8 m -2960.4,-8.1 c 48,-3.3 96,-5.6 144,-8.9 -34.6,-54.3 -103.9,-68.2 -149,-21.1 1.3,7.5 3.7,22.5 5,30 m 1291.1,-289 c 206.7,-80.7 401.1,16.9 585.7,96.5 4.9,-108.2 -68.6,-214.2 -170,-249.7 -152.4,-33.9 -285.9,66.3 -418.6,123.1 0.7,7.5 2.1,22.6 2.9,30.1 m 134,-292.7 c 47.4,-24.6 140.4,-15.2 161.9,-67.2 -53,-52.8 -132.7,16.2 -161.9,67.2 m 334.5,-379.8 c 62.2,113.2 143.5,222.5 268.1,271.4 -61.2,-167.2 -175.1,-317.7 -199.3,-497.5 -4.4,-40.3 45.7,-49.7 74.7,-60.4 -35.8,-208.4 -48.4,-437.9 -142.5,-627 -57.8,211 55.3,444.8 -42.9,647.1 -107.1,15.4 -223.8,-54.2 -325.1,-0.3 126.8,83.1 295.2,116.9 367,266.7 M 4190,4320 c 6.4,35.1 13.8,99.7 58.1,98.9 56.2,-40.2 -6.8,-99.1 -58.1,-98.9 m 54.7,-231.1 c 110.5,40.6 237.8,35.1 344.6,-14 -106.3,-3.2 -262,-88.3 -344.6,14 m 581.6,-81.7 c 44.8,6.3 89.6,10.9 134.8,15.4 7.3,-75.1 15.7,-152.5 -3.7,-226.5 -64,54.3 -114.6,128.1 -131.1,211.1 m -927.8,-225.8 c -38.3,59.4 3.7,170.6 74,202.4 35.4,-75 -26.3,-157 -74,-202.4 m 916.6,-57.6 c 52.4,-5.4 105.2,-9 157.6,-14.9 -17.2,-50.7 30.6,-148.7 -41,-166.2 -43.4,57.4 -82.8,117.6 -116.6,181.1 m -999.2,-576.7 c 24.9,140.6 -45.2,379.7 140.5,431.6 -23.2,-148.6 -105.1,-285.3 -140.5,-431.6 m 1013.9,308.3 c 44.2,-2.9 88.6,-6.6 132.3,-14.1 6.4,-69.1 17,-141.7 -14.5,-206.6 -52.3,64.8 -116.8,131.6 -117.8,220.7 m 38.6,-736.2 c -47.3,218.3 -264,410 -182,645.3 110,-198.1 269.9,-383.7 280,-620.6 1.7,-54.2 -86.9,-94 -98,-24.7 m -882.7,593.7 c 13.2,20.6 40.7,14.1 61.2,15.5 2.7,-210.7 -82.3,-409.2 -141.2,-608.6 0.3,-31.6 -57.9,-105.4 -59.7,-39.4 69.3,203.7 84,424.1 139.7,632.5 m 505.5,-106.4 c 14.7,-0.1 29.5,-0.4 44.3,-0.9 28.7,-236.6 226.5,-432.5 191.8,-679.8 -65.6,229.5 -231,434.1 -236.1,680.7 m -502.6,-565 c 98.6,125.2 122.6,289.7 197.7,423.8 15.5,-228.3 -72.2,-450.6 -199.7,-635 -102,10.5 -46.8,164.5 2,211.2 M 4540.2,2319 c -41,141.7 -113.7,292.5 -77.5,441.4 87,-128.7 85.8,-290.5 108.9,-438 -7.9,-0.9 -23.6,-2.6 -31.4,-3.4 m -439.1,1.1 c -11.6,95.5 33.7,192.8 106.9,252.8 -36,-80.2 -7.1,-232.2 -106.9,-252.8 m 213.8,-110.5 c -68,61.2 -67.6,218.6 23.4,259.2 15.6,-70.1 118.1,-267.4 -23.4,-259.2 m -675.4,-634.5 c -51.7,129.9 12.3,302.6 64,429.5 1.4,-140.8 20.4,-308.9 -64,-429.5 m 1341,392.2 c 16.1,0.7 32.2,1.2 48.4,1.5 -10.6,-187.4 70.5,-387.6 -20.7,-564.8 -49.2,180.6 -9.8,376.7 -27.7,563.3 m -1150.6,-90 c 28.2,-27.2 56.9,-54.8 72.7,-91.9 52,-314.8 -50,-622.6 -55,-935.701 9.5,-139.199 74.5,-329.097 250.8,-303.5 10.2,-162.5 -201,-103 -222.4,20.403 -94.8,195.796 -64,418.796 -80.9,628.798 -14.5,226.6 -33.6,462.5 34.8,681.9 M 4830,1810.5 c 103.1,-95 2,-271.7 30.1,-395.9 58.7,-168.6 68.5,-353.7 47,-529.901 C 4838.4,1185.5 4798.3,1503.7 4830,1810.5 M 4696.3,886.301 c -60.4,248.799 -216.5,585.499 -18,810.399 24,-264.4 30.8,-541.5 18,-810.399 M 4081.9,1637.4 c 117.2,29.4 245.5,-23 367.4,6.9 95.8,2.4 16.1,-118.6 17.4,-171.3 -61.3,-255.8 63.6,-514.301 22.8,-765.602 -45.3,21.801 -95.4,36.801 -133.8,70.102 -87.3,238.9 114.1,592.7 -111.1,777.5 -85,-231.9 21.7,-509.8 -67,-745.102 -52.2,-20.699 -108.1,50.301 -163.2,55.704 -62,168.498 110.2,314.898 86.2,484.898 9.8,96.5 -52.9,196.4 -18.7,286.9 M 3614.8,856.699 c 54.9,-134.801 105.4,-277 169.7,-411.199 -8.6,-1.898 -25.7,-5.5 -34.3,-7.398 -100.7,114.398 -133.4,270.199 -135.4,418.597 m 397.4,-105.898 c 59.3,6 59.6,-49.301 58.4,-95.801 -14.2,-2.301 -28.4,-4.801 -42.5,-7.301 -6.4,34 -11.7,69 -15.9,103.102 m 388.2,-153.199 c 17.7,-0.602 53.2,-1.801 70.9,-2.403 3.3,-39.301 -18.2,-68 -58.9,-68.301 -4.3,23.602 -8.5,47.204 -12,70.704"
           inkscape:connector-curvature="0" />
        <path
           id="path2999"
           style="fill:#4d4d4d;fill-opacity:1;fill-rule:nonzero;stroke:none"
           d="m 4138.2,10660.6 c 275.6,25.2 553.2,-14.3 828.2,16.2 21.1,1.3 46.5,-11.7 47.8,-35 7.4,-131.7 -58.3,-251.3 -106.6,-369.8 -6,0.5 -17.9,1.4 -23.9,1.9 -19.1,94.5 -15.3,194 -43.5,286.2 -58.5,29.1 -198.1,45.6 -187.6,-50.2 14.4,-206.4 -11.2,-418.5 42.1,-619.2 -74.3,-27.1 -174,-22.7 -256.2,-6.8 15.6,227.4 55.6,462.7 9.3,686.1 -216.1,79.7 -154.1,-200.9 -220.1,-318.7 -11.7,0.3 -23.4,0.5 -35.1,0.8 -33.6,133.5 -66.4,269.6 -54.4,408.5 M 3728,10553 c 65.7,25.1 135.7,36.5 205.9,34.9 60.7,-242.1 44.6,-511.5 169.4,-732.5 -61.9,-45.7 -142.8,-42 -215.9,-41.8 -22.9,109.3 -45,218.7 -70.1,327.4 -85.3,1.7 -178,0.2 -247.9,-55.5 7.9,-110.4 46.6,-214.8 70.2,-321.9 -55.1,-41.6 -128.2,-39.9 -194,-41.3 -48.9,249.1 -51.4,517.9 -169.2,747.3 69.9,18 147,46.5 216.6,34.9 40.2,-89.8 13.6,-202.1 59.1,-292.7 80.1,-25.9 166.1,17.3 245.7,33.8 2.8,106.1 -25.2,211.7 -69.8,307.4 m 2155.2,-26.9 c 244.5,-8.3 527.7,-186.8 511.2,-459 -6.3,-192.9 -146.5,-379.6 -336.6,-426.7 -243.6,-75.4 -519.9,85.3 -595.1,324 -69.2,262.5 140,567.3 420.5,561.7 m -223.9,-696.5 c 82.2,137.2 322.8,79.2 265.1,-99.6 229.8,61.1 348.9,404.7 240.7,608.3 -50,-58.2 -113.2,-131.2 -198.7,-102 -76.5,32.6 -66,119.4 -79.2,185.6 -210.3,-97.2 -286.3,-383.7 -227.9,-592.3 m 323.9,482.1 c 54.7,-14.1 117.4,43.9 74.7,94.6 -58.3,51.2 -91.8,-50.4 -74.7,-94.6 m -202.5,-554.3 c 139.1,16.7 -36.5,132.2 0,0 M 2392.3,9957 c 40.7,290 449.5,475.9 673.4,256.8 48.7,-74.7 -81.7,-98 -134,-116.3 -84.8,-47.2 -69.9,71.4 -124.8,94.8 -114,62.9 -256.4,-65.4 -229.9,-186 3.8,-44.4 26.2,-123.3 86,-98.8 185.6,76.1 358.1,183.5 546.3,253.7 107.3,41.3 105.7,-113.7 105.8,-185.9 -66.6,-27.1 -93.7,98.6 -168.1,58.9 -157.9,-69.8 -318.2,-140.5 -465.3,-230.2 0.8,-144.5 173.8,-286.7 311.9,-199.1 95.2,68.2 52.8,191.2 25,283.1 62.6,38.5 127,77 201.1,88 120.3,-285.3 -207.5,-553.8 -477.5,-494 -218.1,39.3 -342.6,268.7 -349.9,475 m 4222.8,200.2 c 81.9,33.8 152.3,-47.6 226.5,-74.4 115.4,-46.4 -27,-220.4 59.7,-272 131.3,63 319.8,111 417.8,-33.5 -25.1,-82.8 -132.1,-121 -204.2,-161.4 3.2,48.3 7.4,96.5 10.2,144.8 -95.1,-9.1 -174.1,-66 -255.3,-110.5 -7.2,-187.5 -12.9,-378.9 27.6,-563.2 -75.7,21.7 -155.4,57.4 -200.4,124.2 -18.7,119.6 -15.8,242.5 -46.3,360.7 -201.6,-122.3 -487.7,-216.7 -677,-17 203.2,-67.4 399.6,5.6 574.9,105.1 142,35.3 155.3,216.4 111,331.5 -49.9,-13.2 -91.2,-66.9 -144.4,-56.3 1.7,81.1 53.2,158.6 99.9,222 M 2072.5,9910.4 c 174.7,-186.7 321,-410.2 539.1,-549.4 -48,-48.8 -88.2,-139 -166,-138.5 -87.9,85.7 -152.8,200 -262.7,260.4 24.9,-142.8 133.9,-313.3 27.9,-443.6 -129.2,-80.7 -275.8,36.6 -405.6,56.2 62.1,-93.6 154.2,-160.9 232.9,-239.2 -9.1,-72.7 -91.9,-129.7 -163.2,-135.9 -155.9,192.1 -340.3,381.7 -512.5,548.3 61.9,61.7 155.7,230.3 245,109.2 138,-104.5 285.6,-241.2 467.5,-244.4 97.7,-16.4 71.6,94.7 59.6,150.4 -44.3,168.4 -114.2,338.9 -247.4,456.9 50.4,67.9 117.8,120 185.4,169.6 m 5544.6,-172.1 c 14.7,56.6 121.5,175.2 170.2,87.9 55.4,-85.7 -122.7,-73.2 -75.5,-172.8 69,-167.3 233.9,-316.4 201.3,-513.1 -53.9,-155.2 -258.1,-143.4 -374,-69.8 -173,136.1 -295.5,-115.6 -385.1,-233.8 -79.2,27.1 -127.9,95.7 -174.2,160.9 185.3,149.9 353,324 504.4,508.6 51.3,65.9 114.9,-47.8 153.1,-81.1 47.7,-97.3 -143.8,-124.7 -132.5,-219.3 70.7,-101.4 262.4,-56.7 264.1,74.4 -32.3,159.5 -197.8,281.8 -151.8,458.1 M 2851.2,9009 c 748.5,456.5 1670.6,586.9 2523.4,400.5 572.1,-124.1 1139.9,-399.7 1499.3,-875.6 598.2,-637.1 871.7,-1553.7 771.9,-2418.4 C 7509.3,5559.7 7294.2,5004.7 6905,4575 6619.7,4266.5 6272.3,4008.7 5880.7,3849.6 5876,3413.6 5784.4,2987.7 5696.1,2563 5624.6,1998.5 5376.9,1475.7 5291.1,914.301 5220.9,699.801 5131.1,489.898 5014.6,296 4904.8,107.102 4632.2,85.8984 4461.5,200.301 4372,250 4329.6,350.898 4244.7,405.602 4177.4,311.801 4135.9,168.301 4010.2,137.801 c -188,-18.699 -397,42.597 -513.5,199.097 C 3307.4,621.199 3258.9,971 3245.4,1305 3116,2180.9 2888.6,3052.7 2927.9,3945.7 c -17.5,93.8 -126.9,125.9 -193.1,179.1 -306,177.6 -525.8,466.8 -705.4,764.5 -404.9,638 -578.5,1431.3 -444.3,2175.3 135.3,784.2 616.5,1492.9 1266.1,1944.4 m 1374.2,-117.9 c -152.9,7.8 -126.7,362.5 -308.7,239.9 11.6,-90.7 86.7,-184.7 48,-274.7 -151.8,-97.1 -119,289.8 -261,229.9 -29.1,-109.1 102.4,-202.7 54.6,-317.3 -178.3,-21.5 -129.2,311.4 -318.7,229.1 -16.2,-136.9 172,-205.8 119.4,-347.7 -143.8,0.1 -201.2,162.8 -282.6,254.7 -121.5,-98.4 184.8,-253.5 58.3,-352.4 -130.4,1.9 -160.6,184.5 -273,215.5 -43.6,-109.9 106.9,-179.4 100.7,-280.9 -35.3,-95.9 -153,-12.9 -173.6,51.6 -35.7,36.4 -85.1,171.1 -147,98.2 29.3,-115.3 139.5,-201.8 152.5,-328.6 736.7,463.1 1675.6,517.3 2503.4,299.7 537.7,-192.1 1089.7,-546 1263.9,-1121.5 76.5,81.6 170.9,140 267.5,194.2 62.6,43.4 28.6,129.5 -22.5,167.1 -99.3,-11.9 -179.6,-98.2 -284.1,-83.1 13.6,133.8 308.6,194.5 123.6,349.7 -85.1,-8 -154.3,-64.5 -235.3,-82.7 -86.7,18.7 -0.6,125.4 28.8,159.1 99.7,73.7 12.8,203.8 -81.3,227.4 -98.9,-15.3 -154.5,-215.4 -265.4,-145.2 -36.6,120.1 145.1,181 148.1,296.9 -114.3,26.8 -144.2,-133.2 -242.1,-160.6 -34.3,-32.6 -121,-19.5 -94.1,44.3 34.4,98.3 143.1,148.7 176.7,247.3 -135.7,-22.2 -167.7,-273.2 -346,-247.9 -63.9,154.6 295.6,313.4 115.2,429.6 -71.9,-113 -133.7,-239.9 -244.8,-319.8 -42,-31.1 -110.8,16.5 -78.3,68.5 47.1,96.7 124.5,178.6 158.6,282.4 15.4,41.5 -50.4,87.6 -77.3,46.9 -78.5,-102.4 -109.5,-257 -237.2,-309.4 -94.9,47.2 -1.7,169.6 26.9,231.3 45.2,59.5 74.4,222.8 -51.5,195.7 -85.8,-97.3 -85.2,-248.8 -166.6,-349.5 -26.5,-23.4 -80.5,-26.6 -88,16.5 -6,127.7 83.7,245.1 59.5,374.7 -16.3,28.3 -62,37.4 -89.4,18.2 -25.7,-120.9 -25.7,-283.1 -141.1,-353.1 -111.4,102.8 51.3,273.8 -23,393.9 -30.3,24.4 -73.9,3.2 -110.1,3.3 -13.5,-118.4 27.9,-303.2 -97.5,-362 -117.4,81.3 80.5,434.1 -148.4,388.1 -27.8,-103.6 -5.6,-218.2 -53.9,-316.4 -17.2,-45.9 -90.4,-40.1 -103.5,5.5 -32.4,103.3 15.8,209.9 -4.3,314.8 -211.8,35.4 -3.6,-277.1 -149.6,-321.9 -125.7,55.5 -41.1,236.3 -113.6,325.4 -218.4,10.3 -8.9,-232.8 -92.2,-324.7 M 3201.3,8068.8 c -189.8,-234.3 -209.9,-545.4 -246.5,-832.2 -27,-347.7 105,-671.9 127.1,-1015.4 30.9,-90.4 -96.8,-147.2 -51.3,-238.2 35.7,-82.4 57.2,-168.4 61.9,-258.5 62.8,132.9 46.8,293.2 31.5,436.9 43.4,225.2 92.2,480 -36.9,686.2 -24.2,104.6 -174.1,313.3 0.6,359.8 -50.9,182 -56.6,393.7 37.1,562 96.1,8.8 23.8,-158.4 112.2,-172.4 110,283.6 267,566.8 503.4,762.9 66,57.9 177,69.2 210.6,159.3 -303.1,-10.1 -596,-189.6 -749.7,-450.4 m -531.6,332.4 c 49.7,-61.8 165.7,-135.9 102.6,-223.6 -119.1,-44.2 -176.1,142.1 -283.3,121 14.6,-116.9 234,-160.6 189.8,-296.6 -110.8,-68 -193.8,119.2 -308.4,117 26.2,-116.7 179.3,-163.9 187.4,-283.3 -44.3,-80 -159,-41.8 -194.9,27.6 -17,43.2 -127.2,113.7 -109.9,13.8 68.6,-92.7 253.9,-97.9 245.2,-242.5 -112.7,-81.4 -249.5,126.5 -356.1,41 17.5,-126.7 201.1,-151.1 254.4,-262 10.9,-32.8 -11.6,-89.5 -53.2,-78 -97.7,26.3 -171.2,105.6 -262.6,144.7 -65.2,-26.9 -30.6,-93.1 23.6,-106.6 80.7,-62.3 297.3,-89.3 214.1,-234.9 -113.7,-6.7 -204.4,67.2 -305.2,104.9 -55,34.4 -72.2,-42.1 -58.8,-76.9 114.8,-67 256.1,-68.9 363.6,-149.6 35,-29.5 27,-97.7 -22,-106.9 -140.9,-1.2 -260.3,85.2 -394.8,114.1 -17.9,-44.4 -49.4,-132.5 18.3,-146.6 121.7,-40.5 284.6,6.4 379.1,-100.5 38.8,-31.1 13.5,-88 -23.1,-106.4 -130.5,-28.6 -253.2,50.1 -381,56.5 -70.3,-15.2 -45.3,-124.3 19.5,-126.7 130.5,-16.8 278.2,17.9 393.7,-64.6 37.5,-62.8 -38.3,-120.1 -94.6,-130.5 -116.4,-5.1 -226.1,49.8 -342.7,46 -58.1,-162.2 153.3,-137.3 248.4,-127.9 108.4,46 288.5,-4 279.8,-143.7 -147.1,-89 -335.9,8.1 -498.6,0.3 -7.8,-54.4 -17.9,-149.4 54,-159.5 146.9,5.8 280.8,89.5 428.5,86.3 82.5,-11.6 75,-145.8 -4.2,-156.6 -136.5,-63.7 -307.1,-18.9 -432.9,-103.1 10.1,-34.9 3.1,-106.1 57.5,-106.1 132.2,12.3 251.4,99.2 388.7,76.4 66,-22.1 39,-129.6 -23,-138.3 -95,-23.9 -191.2,-43.6 -285.8,-69.6 -55.6,-16.3 -56.1,-136.9 19.8,-103.6 90.9,39.6 181.4,81.2 271.3,122.7 82,30.1 112.8,-88.7 53.9,-127.2 -87.3,-56.2 -192.6,-79.6 -274.8,-145.3 -59.3,-30.2 19.9,-147.2 70.4,-91.8 88.5,56.4 173.6,120.8 272,159.2 40.6,15.3 85.7,-26.9 71.8,-68.5 -62.8,-118.1 -201.3,-155.5 -290.9,-245.4 -17,-36.6 13.2,-104.7 59.9,-98.2 100.3,58.5 181.9,148.5 289.7,194 33.3,18.4 102.2,-16.4 77.5,-58.3 -61.1,-107.6 -174.9,-167.9 -260.8,-252.1 -35.6,-57 26.4,-115.2 75.9,-136.5 99.5,64.1 167.9,197.4 298.1,197.1 33.6,-150.3 -167.8,-211.9 -171.9,-341.1 102.4,-68.9 157.6,182 260.8,90.4 42,-89.1 -70.1,-154.3 -102.3,-226.7 9.9,-63.8 76.5,-112.2 140.6,-107.1 34.1,145.7 83.4,323.3 -22.2,451.1 -111.5,155.3 -34.7,369.9 -144.4,525.2 -134.5,208.4 -233.7,483.7 -114.8,721.8 84.1,134.7 -53.7,251.8 -83.2,379.9 -138.3,434.5 -157.5,925.6 7.3,1354.2 65.7,186.8 250.4,296.5 343.2,464.8 -73.2,62 -130.8,138.4 -188.7,213.9 -51.2,59.6 -125.6,-39.5 -71.3,-81.1 m 2506.8,95.9 c 157.5,-122.8 361.1,-181.2 506.3,-324.3 177,-145.8 279.2,-355.6 369,-561.4 7.5,0.4 22.4,1.2 29.8,1.6 18.4,166.6 -104.3,299.9 -99.9,465.8 -177.7,266.3 -499.6,375.1 -805.2,418.3 M 3672.2,7978.5 c -156.1,-325.6 -207.5,-707.9 -136.5,-1061.9 82,-128.9 247.3,-167.7 376.5,-235.1 293.4,-80.6 606.7,-111.2 904.7,-35.1 -221.7,-24.5 -445.4,-2.9 -655.8,72.1 -125,33.2 -311.9,50.1 -352.1,188.2 177.7,-2.8 354,-24.2 525.1,-73.5 65.8,-23.6 150,-40.7 202.8,17.4 -194.9,42.1 -421.3,26 -581.6,165.1 -134.6,71.5 -222,235.8 -180.9,386.5 9.5,38.2 55.5,48.5 88.3,30.6 152.5,-52.2 309.6,-97 469.8,-118.3 259.7,14.6 532.6,165.3 600.9,433.5 105,282.6 -96.1,607 -377.2,679.8 -349.1,58 -739,-116.9 -884,-449.3 M 6782,7416.9 c -11.4,-240.6 20.7,-485.4 -39.2,-724.8 -69.9,-236.8 -78.9,-485.2 -140.9,-723.6 -6.5,-95.7 37.1,-187.2 44.4,-282.3 163.1,-4.1 308.9,-83.6 467.1,-111.1 56.2,-33.1 113.4,66.2 44.6,83.2 -153.6,49.5 -314.3,90.2 -450.8,179.6 -25.4,28.6 -17.2,75.4 23.4,83.5 181.7,12.7 338.6,-105.7 517.1,-116.2 17.9,38.8 59,111.6 6.4,139.1 -136.5,56.3 -291.8,22 -428.5,78.1 -42.5,18.3 -65.9,87.9 -20.4,115 173.1,29.9 341.9,-55.2 515.3,-39.3 7.7,56.2 16.3,112.2 18.9,168.9 -167.9,41 -345.5,-6.1 -512,38.5 -43.2,9.9 -49.9,58.9 -10.1,79 154.6,55.7 325.2,24.9 485.1,60.3 72.7,10 75.1,130.4 21.9,164.5 -159.2,7.7 -319.1,-35.2 -477.6,-2.8 -3.4,16.1 -10.1,48.4 -13.5,64.5 140.2,91.1 316.6,45.8 468.7,96.2 79.7,27.8 30.5,141.6 6.8,196.4 -124.2,-0.2 -245.1,-22.9 -362.7,-59.7 -76.3,-32.4 -104.2,74.2 -45,105.1 102.1,54.4 220.4,68.8 327.1,111.8 86.3,32.4 20,197.9 -68,140.6 -107.6,0.9 -211,-135 -313.5,-60.3 81.7,109.7 212.2,165.2 321.3,242.4 25.9,36.2 -1.3,95.9 -42.2,105.8 -128.2,0 -222.8,-104.3 -343.7,-132.4 m -490,-777.7 c -48.9,-268.7 -112.4,-541.7 -120,-812.8 82.8,21.1 156.7,82 205.7,146 -88.6,353.3 30.8,722 -18.2,1074.6 -88.8,-114.6 -43.1,-276 -67.5,-407.8 m -2732.4,-45.1 c -73.3,-40.2 -188.3,-70.9 -176.7,-178.3 9.9,-83.6 -38.2,-257.8 101.1,-234.9 169.2,7.2 316.9,-82.6 472.7,-128.1 109.5,86.5 105.2,318.5 -40.1,375.9 -118.2,53.8 -220.6,172 -357,165.4 m 1368.2,-221 c -194.4,16.7 -295.4,-234.1 -240.8,-383.9 159.9,-6.3 317.2,71 477.1,91.7 15.4,160.2 213.1,192 250.5,347.9 -160,42.2 -325.4,-44.9 -486.8,-55.7 m -674.9,-95.8 c 29,-109.2 18.2,-222.4 20.9,-333.9 192.7,-52.4 121.6,238 168,345.2 -57.8,11.3 -158.8,54.3 -188.9,-11.3 M 2782,6057.6 c -43.8,-83.2 76.5,-110.9 130.8,-138.4 28.6,72.4 -59.2,181.3 -130.8,138.4 m 1598.3,-241.3 c -88.7,-98.6 -31.3,-253.9 -45.1,-375.4 57.7,-297.9 -25.1,-607.2 44.9,-901.6 15.8,1.3 31.6,2.4 47.6,3.5 27.1,136.6 -30.2,275 -12.5,413.3 -28.5,259.4 81.6,513.2 26.7,771.6 11.4,49 -26.3,71.4 -61.6,88.6 m -1550.8,-40.1 c 42.2,-159.2 73.2,-335.2 168.3,-471.9 43.4,165.7 13.4,410.6 -168.3,471.9 m 1261.4,-127.3 c -108.2,-134.8 -249.8,-292.3 -441.7,-267.5 -130.6,30.9 -154.9,180.9 -201.3,287.3 -12.4,-1 -24.8,-2.1 -37.1,-3.4 -21,-162.3 79.6,-359.3 252.3,-382 51.9,-11.4 132.6,32.9 169,-22 29.5,-105.1 -255,-171.6 -130.1,-270.3 172.1,-69.4 289.6,124.1 424.6,194.4 49.4,-37.2 113.3,-86.3 85.9,-158.4 -16,-292.9 -268.4,-487.6 -478.8,-655.2 -112.1,-4 -148.7,129.5 -189.2,212.5 -62.6,117.1 -77.8,250.1 -100.2,378 -92.6,76.1 -185.3,180.2 -257.1,256.8 -9.6,-360.1 90.9,-719.3 109.6,-1081.6 -1.2,-21.2 6.1,-145.3 33.4,-78.1 16.4,127.4 -11.7,276.1 63.3,390.5 32,11.2 41.2,-26.6 41.1,-50.7 2,-352.3 45.7,-702.2 62.1,-1053.7 9.3,-568.8 -113.4,-1144.9 -3.5,-1710 71.2,278.7 62.2,574 115.1,857.2 8.3,449.7 -84.4,899.2 -19.1,1347.9 15.5,80.5 9.7,182.4 89.2,232.1 125.5,94.9 203.6,322.9 394.4,251.4 144.3,66.7 -27.7,213.1 49.4,295.7 39.4,0.5 107.4,-28.7 116.8,27.4 51.7,376.5 -8.8,756.2 -23.4,1133 -70.6,-4.2 -79.3,-91.5 -124.7,-131.3 m 2291.3,30.3 c -95.5,-192.9 -153.3,-397.8 -205.4,-605.3 8.5,-0.9 25.5,-2.6 34,-3.5 107.1,173.8 157.5,372.4 224.7,562.8 16.6,30.3 -42.9,36.2 -53.3,46 m -1473,-63 c 19.6,-148.4 225.1,-74.1 275.4,16.1 -91.8,-14.7 -180.3,-45.7 -275.4,-16.1 m 1713.3,2 c -180.5,-276.1 -262.1,-606.4 -480.7,-859.8 -144,-127.7 -246.3,-330.1 -223.9,-525 72.4,-24.4 152.1,10.4 218,40.3 -3,113.7 -182,209.2 -87.6,317.5 129.6,28.2 120.4,-168.7 162.7,-245.5 51.9,2.5 94.4,33 122.6,74.5 -55,93.1 -191.1,180.6 -159.2,297.3 142.9,65.7 163.8,-194.1 299.5,-171.7 2.8,113.8 -158.6,150.3 -179.5,260.4 -27.5,52.3 41,79.5 78.2,58.4 108.8,-15.7 151.3,-160.5 261.6,-162.2 -24.7,122 -235.2,194.4 -191.9,334.4 142,53.1 210.8,-197.9 359,-156.8 -29.9,144.6 -244.4,152.3 -294.3,297.8 11.8,13.8 35.3,41.4 47,55.2 109.2,-26 195.2,-103 298.2,-142.9 52.2,-26.4 125.2,7.1 127.3,67.8 -98.7,80 -239.9,84.9 -342.8,159.2 -46.1,24.6 -52.8,125.5 12.9,121.4 137.5,-37.6 270.6,-96.7 414.9,-106.7 44,21.2 41,93.7 -11.3,101 -153,37.3 -306.2,91.9 -430.7,185.4 m -2960.4,-8.1 c -1.3,-7.5 -3.7,-22.5 -5,-30 45.1,-47.1 114.4,-33.2 149,21.1 -48,3.3 -96,5.6 -144,8.9 m 1291.1,-289 c -0.8,-7.5 -2.2,-22.6 -2.9,-30.1 132.7,-56.8 266.2,-157 418.6,-123.1 101.4,35.5 174.9,141.5 170,249.7 -184.6,-79.6 -379,-177.2 -585.7,-96.5 m 134,-292.7 c 29.2,-51 108.9,-120 161.9,-67.2 -21.5,52 -114.5,42.6 -161.9,67.2 m 334.5,-379.8 c -71.8,-149.8 -240.2,-183.6 -367,-266.7 101.3,-53.9 218,15.7 325.1,0.3 98.2,-202.3 -14.9,-436.1 42.9,-647.1 94.1,189.1 106.7,418.6 142.5,627 -29,10.7 -79.1,20.1 -74.7,60.4 24.2,179.8 138.1,330.3 199.3,497.5 -124.6,-48.9 -205.9,-158.2 -268.1,-271.4 M 4190,4320 c 51.3,-0.2 114.3,58.7 58.1,98.9 -44.3,0.8 -51.7,-63.8 -58.1,-98.9 m 54.7,-231.1 c 82.6,-102.3 238.3,-17.2 344.6,-14 -106.8,49.1 -234.1,54.6 -344.6,14 m 581.6,-81.7 c 16.5,-83 67.1,-156.8 131.1,-211.1 19.4,74 11,151.4 3.7,226.5 -45.2,-4.5 -90,-9.1 -134.8,-15.4 m -927.8,-225.8 c 47.7,45.4 109.4,127.4 74,202.4 -70.3,-31.8 -112.3,-143 -74,-202.4 m 916.6,-57.6 c 33.8,-63.5 73.2,-123.7 116.6,-181.1 71.6,17.5 23.8,115.5 41,166.2 -52.4,5.9 -105.2,9.5 -157.6,14.9 m -999.2,-576.7 c 35.4,146.3 117.3,283 140.5,431.6 -185.7,-51.9 -115.6,-291 -140.5,-431.6 m 1013.9,308.3 c 1,-89.1 65.5,-155.9 117.8,-220.7 31.5,64.9 20.9,137.5 14.5,206.6 -43.7,7.5 -88.1,11.2 -132.3,14.1 m 38.6,-736.2 c 11.1,-69.3 99.7,-29.5 98,24.7 -10.1,236.9 -170,422.5 -280,620.6 -82,-235.3 134.7,-427 182,-645.3 m -882.7,593.7 c -55.7,-208.4 -70.4,-428.8 -139.7,-632.5 1.8,-66 60,7.8 59.7,39.4 58.9,199.4 143.9,397.9 141.2,608.6 -20.5,-1.4 -48,5.1 -61.2,-15.5 m 505.5,-106.4 c 5.1,-246.6 170.5,-451.2 236.1,-680.7 34.7,247.3 -163.1,443.2 -191.8,679.8 -14.8,0.5 -29.6,0.8 -44.3,0.9 m -502.6,-565 c -48.8,-46.7 -104,-200.7 -2,-211.2 127.5,184.4 215.2,406.7 199.7,635 -75.1,-134.1 -99.1,-298.6 -197.7,-423.8 M 4540.2,2319 c 7.8,0.8 23.5,2.5 31.4,3.4 -23.1,147.5 -21.9,309.3 -108.9,438 -36.2,-148.9 36.5,-299.7 77.5,-441.4 m -439.1,1.1 c 99.8,20.6 70.9,172.6 106.9,252.8 -73.2,-60 -118.5,-157.3 -106.9,-252.8 m 213.8,-110.5 c 141.5,-8.2 39,189.1 23.4,259.2 -91,-40.6 -91.4,-198 -23.4,-259.2 m -675.4,-634.5 c 84.4,120.6 65.4,288.7 64,429.5 -51.7,-126.9 -115.7,-299.6 -64,-429.5 m 1341,392.2 c 17.9,-186.6 -21.5,-382.7 27.7,-563.3 91.2,177.2 10.1,377.4 20.7,564.8 -16.2,-0.3 -32.3,-0.8 -48.4,-1.5 m -1150.6,-90 c -68.4,-219.4 -49.3,-455.3 -34.8,-681.9 16.9,-210.002 -13.9,-433.002 80.9,-628.798 21.4,-123.403 232.6,-182.903 222.4,-20.403 -176.3,-25.597 -241.3,164.301 -250.8,303.5 5,313.101 107,620.901 55,935.701 -15.8,37.1 -44.5,64.7 -72.7,91.9 M 4830,1810.5 c -31.7,-306.8 8.4,-625 77.1,-925.801 21.5,176.201 11.7,361.301 -47,529.901 -28.1,124.2 73,300.9 -30.1,395.9 M 4696.3,886.301 c 12.8,268.899 6,545.999 -18,810.399 -198.5,-224.9 -42.4,-561.6 18,-810.399 M 4081.9,1637.4 c -34.2,-90.5 28.5,-190.4 18.7,-286.9 24,-170 -148.2,-316.4 -86.2,-484.898 55.1,-5.403 111,-76.403 163.2,-55.704 88.7,235.302 -18,513.202 67,745.102 225.2,-184.8 23.8,-538.6 111.1,-777.5 38.4,-33.301 88.5,-48.301 133.8,-70.102 40.8,251.301 -84.1,509.802 -22.8,765.602 -1.3,52.7 78.4,173.7 -17.4,171.3 -121.9,-29.9 -250.2,22.5 -367.4,-6.9 M 3614.8,856.699 c 2,-148.398 34.7,-304.199 135.4,-418.597 8.6,1.898 25.7,5.5 34.3,7.398 -64.3,134.199 -114.8,276.398 -169.7,411.199 m 397.4,-105.898 c 4.2,-34.102 9.5,-69.102 15.9,-103.102 14.1,2.5 28.3,5 42.5,7.301 1.2,46.5 0.9,101.801 -58.4,95.801 m 388.2,-153.199 c 3.5,-23.5 7.7,-47.102 12,-70.704 40.7,0.301 62.2,29 58.9,68.301 -17.7,0.602 -53.2,1.801 -70.9,2.403 M 1039.7,8824.7 c 34.2,71.3 71.1,144.3 129.7,198.9 201.6,-141.8 397.4,-305.2 631.9,-388.1 -10.7,-79.5 -62.5,-144.4 -119.3,-197.7 -136,94 -262.8,215.1 -418.2,274.8 16.3,-162 82.5,-315.1 125.7,-471.4 4.1,-61 66.6,-70.6 108.7,-94.8 -11.9,-67.8 -52.1,-173.8 -134.8,-164.1 -217.8,97.2 -382.4,326.2 -623.599,365.5 26.5,78 69.898,179.1 147.898,210.3 97,-110.2 222.201,-193.6 354.201,-258.8 -29.1,178 -56.7,400.4 -202.2,525.4 m 6342.9,-209.3 c 197.5,147.3 450.2,221.6 619,407.5 68.7,-54.6 100.6,-140.6 142.4,-215.1 -151.1,-41.4 -283.8,-128.7 -411.1,-218.3 177.3,-44.5 405.3,-135 577,-35.4 28.8,-72.3 100.1,-130.6 109.1,-209.7 -213.3,-135.8 -460.7,-228.2 -637.5,-415.9 -47.3,62.3 -92.1,126.9 -123.2,198.8 147.4,86.1 308.4,156.3 438.6,267.7 -202.2,9.5 -451,165.5 -626.8,21.2 -27.4,62.1 -124.8,124.2 -87.5,199.2 M 575.199,7885.7 c 269.903,1.3 541.101,-16.7 809.201,29.3 -7.5,-71.7 -40.2,-136.1 -69.4,-200.8 -177.9,-28.2 -359.699,17.1 -537.301,-22.8 0.699,-7.8 1.903,-23.3 2.602,-31 133.301,-92.8 244.199,-250.4 414.799,-266.3 4.6,-62.9 -17.8,-122.4 -46.9,-176.8 -222.399,141.4 -403.899,447 -688.501,414.6 44.199,75.5 26.199,212.1 115.5,253.8 m 7256.601,3.9 c 100.4,60.5 74.3,-101.8 157.6,-102.6 175.1,-25.4 354.1,-31.8 530.5,-20.1 52.2,-0.5 55.7,78.9 98.1,79.6 22.8,-98.8 103.6,-212.8 70.3,-312.6 -181.9,-65.4 -326.5,-197.7 -499.2,-282.1 -102.2,-44.9 -30.5,-167.1 -31.6,-247.5 -119.9,-1.4 -291.1,-75.8 -386.7,31 67.3,47.6 143.6,78.7 220.2,108 -22.7,198.5 -89.1,387.8 -152.2,576.1 -99.3,9.4 -202.5,0.7 -295.7,42.2 68.2,84.4 196.6,80.9 288.7,128 M 7990.6,7657 c 5.5,-87 24.1,-175.2 70.8,-249.9 123.7,47.8 230.7,129 338.8,203.9 -0.3,6.9 -0.9,20.7 -1.1,27.6 -135.8,10.5 -272.5,37 -408.5,18.4 M 392.199,7176.5 c 85.699,-23 177,-53.1 242.403,-115.6 -43.801,-22.3 -91.204,-35.4 -137.403,-51.7 37.102,-63.6 97.903,-104.8 168.602,-121.8 111.5,157 272.801,293.5 480.799,247.2 8.9,-76 -0.1,-152.1 -16.3,-226.4 -164.101,57.1 -347.601,-15.9 -415.902,-181.1 -149,40.7 -269.296,162.6 -346.296,293 -19.801,48 -39.204,135.6 24.097,156.4 M 8230.7,6969 c 215.6,160.6 611.8,98.2 681.2,-188.4 94.3,-229.8 -60.8,-498.7 -313.5,-511.3 -11.1,84.3 -70.9,281.6 80.8,234.5 161.9,-28.6 225.6,229.5 81.5,287.4 -151.3,68.9 -335,47.3 -490.1,-1.6 -133.4,-27.2 -170.3,-257.1 -26.1,-298.3 49.5,-18.9 101.7,4.2 151.9,9 13.7,-78.8 16.6,-159.6 10.1,-239.4 -368.3,-19.2 -482.5,545.7 -175.8,708.1 M 342.801,6749.7 c 247,-36.1 502,-91.5 750.699,-57.6 25.6,-72.5 11.8,-148.2 -7.6,-220.2 -257.9,21.9 -517.502,75.2 -776.099,47.5 -5.903,75.7 -12.301,165.3 33,230.3 M 8074.3,6186.5 c 255.2,-21.5 506.1,-136.3 763.8,-108.4 7.4,-6.9 14.9,-13.8 22.5,-20.8 -17.8,-72.1 -10.4,-159.1 -63.3,-217.3 -241.3,71.4 -494.1,124.3 -745.7,129.9 5.3,72.4 11.7,144.8 22.7,216.6 M 955.5,6051.4 c 113.5,68 193.9,-14.2 185.6,-131.9 -103.6,-44.9 -193.202,23.7 -185.6,131.9 m 7479.8,-156.5 c 156.6,-79.8 386.5,-255.8 296.4,-468.9 -91.2,-8 -178.4,66 -249.2,124 38.4,31.3 89.4,29.3 136.1,36.2 0.7,84.1 -95.9,114.3 -157.2,147.6 -123.9,-152.1 -296.1,-275.5 -506.1,-211.3 22.8,70.2 -2.4,177.7 55.7,226 162.7,-67.6 326.8,11.7 424.3,146.4 M 856.602,5546.8 c 24,133.6 118.898,319.2 271.098,300.9 82.8,-163.7 136.2,-349.6 160.4,-533 -212.2,-36.6 -421.702,-87.1 -626.498,-153 -77.301,118.8 -99.403,289.7 -47.602,424.1 61.199,89.3 182.199,10.5 242.602,-39 M 953,5414.8 c 66.4,1.9 140.6,9.1 195.5,48.4 26.4,65.6 -17.3,130.5 -41.3,189.6 -117.399,-1.2 -177.7,-135.3 -154.2,-238 m -285.199,-54.5 c 72.097,-23.5 244,4.4 139.898,108.1 C 716.801,5557 648.102,5448 667.801,5360.3 m 7266.499,78.3 c 242.7,-77.2 459.8,-245 718.1,-280.9 -21.7,-89.6 -68.2,-171.4 -124.4,-243.7 -90.3,127.3 -258.6,162.9 -397.3,216 54.5,-182.7 135.3,-388.2 287.5,-501.7 -23.6,-71.8 -56,-264 -160.9,-181.8 -205.3,97.5 -407.1,229 -635.8,261.2 13.6,70.1 28.6,150 82.8,201.3 164.4,-34.1 300.2,-155.5 465.2,-188.7 -32.8,150 -115.5,283.7 -174,424.3 -26.7,64.9 -98.4,80.8 -156.7,104.6 30.4,63.6 51.9,133.3 95.5,189.4 M 1057.5,5179.2 c 293.6,158.7 541.1,-270.7 363.1,-499.4 -120.2,-128.6 -339,-235.4 -500.1,-119.1 -202.602,110.2 -244.102,457.6 -2.102,550.2 42.602,-45.1 63,-106 71.5,-166.4 -124.699,-17.4 -211.597,-174.3 -96.296,-262.4 146.398,-64.2 300.998,35.3 417.698,116.6 88.2,50.8 101.7,182.9 25.4,248.7 -60.6,43.6 -129.2,-10.8 -192.8,-15.6 -51.1,29.9 -64.3,95.9 -86.4,147.4 m -406.602,-1682 c 33.301,-1.5 -15.398,-29.8 0,0"
           inkscape:connector-curvature="0" />
      </g>
    </g>
  </g>
</svg>
